<svg width="252" height="169" viewBox="0 0 252 169" fill="none" xmlns="http://www.w3.org/2000/svg">
<path d="M64.4459 49.0114C80.9148 37.8575 98.929 29.1632 117.918 23.2036C113.123 29.5428 110.863 32.755 106.583 39.2003C132.716 29.4777 159.554 30.0543 186.757 35.4217C180.576 42.3559 177.547 45.8944 171.926 53.0875C186.035 54.7842 198.763 59.1128 210.507 65.1294L226.243 55.298C216.013 50.8557 205.036 47.5774 193.045 45.8009C202.21 39.0645 211.943 33.1334 222.135 28.0744C190.721 17.3165 164.281 15.0895 131.654 21.0949C139.361 13.5364 147.63 6.56985 156.39 0.25489C126.037 5.57007 102.142 15.6223 77.2956 31.983C80.2662 23.9417 81.8729 19.8874 85.3406 11.7246C44.4099 44.7243 18.8694 84.0438 0 130.364C16.4762 95.4838 36.855 66.1596 67.7897 40.4157C66.4191 43.8604 65.7525 45.5897 64.4459 49.0114Z" fill="url(#paint0_linear_3_26)"/>
<path d="M251.455 69.3354L251.603 69.5715L251.703 69.5045C251.621 69.4481 251.538 69.3917 251.455 69.3354Z" fill="url(#paint1_linear_3_26)"/>
<path d="M209.004 66.0688L177.352 85.8442C163.257 77.3841 144.926 72.2022 124.515 76.2052C129.825 65.339 132.743 59.8932 139.08 49.154C117.164 51.5024 96.2866 60.5533 78.4904 72.1938C81.9219 63.0921 83.9006 58.4207 88.1837 49.1286C72.0394 59.2514 57.2195 71.3982 44.0751 85.2814C45.2273 77.2206 45.8911 73.0951 47.4565 64.6916C26.9051 87.2871 12.578 110.809 0.492584 138C15.6212 102.304 34.8076 72.0668 64.5765 45.0665C63.2991 48.5955 62.6979 50.36 61.5207 53.8508C77.4564 42.0456 95.0079 32.6629 113.619 26C109.086 32.5628 106.957 35.876 102.937 42.5023C128.498 31.8012 155.11 31.4457 182.249 35.9014C176.363 43.0989 173.545 46.7675 168.16 54.2063C183.072 55.4983 196.543 59.8348 209.004 66.0688Z" fill="url(#paint2_linear_3_26)"/>
<g filter="url(#filter0_d_3_26)">
<path fill-rule="evenodd" clip-rule="evenodd" d="M94.5457 157.43C98.4827 164.682 108.709 166.386 117.387 161.237C126.065 156.087 129.908 146.034 125.971 138.782C122.034 131.53 111.808 129.825 103.13 134.975C94.4519 140.124 90.6087 150.178 94.5457 157.43ZM100.376 153.97C102.852 158.531 109.284 159.603 114.742 156.365C120.2 153.126 122.617 146.803 120.141 142.241C117.665 137.68 111.233 136.608 105.775 139.847C100.317 143.086 97.8995 149.409 100.376 153.97Z" fill="black"/>
</g>
<path d="M130.668 144.567L234.452 56.884L118.47 130.307C122.791 130.691 126.602 132.756 128.825 136.378C130.329 138.829 130.908 141.669 130.668 144.567Z" fill="black"/>
<defs>
<filter id="filter0_d_3_26" x="93" y="132" width="36.5166" height="36.2115" filterUnits="userSpaceOnUse" color-interpolation-filters="sRGB">
<feFlood flood-opacity="0" result="BackgroundImageFix"/>
<feColorMatrix in="SourceAlpha" type="matrix" values="0 0 0 0 0 0 0 0 0 0 0 0 0 0 0 0 0 0 127 0" result="hardAlpha"/>
<feOffset dx="2" dy="4"/>
<feComposite in2="hardAlpha" operator="out"/>
<feColorMatrix type="matrix" values="0 0 0 0 0 0 0 0 0 0 0 0 0 0 0 0 0 0 0.12 0"/>
<feBlend mode="normal" in2="BackgroundImageFix" result="effect1_dropShadow_3_26"/>
<feBlend mode="normal" in="SourceGraphic" in2="effect1_dropShadow_3_26" result="shape"/>
</filter>
<linearGradient id="paint0_linear_3_26" x1="133.026" y1="-3.64115" x2="-20.985" y2="99.8667" gradientUnits="userSpaceOnUse">
<stop stop-color="#FFC700"/>
<stop offset="1" stop-color="#FF8A00"/>
</linearGradient>
<linearGradient id="paint1_linear_3_26" x1="133.026" y1="-3.64115" x2="-20.985" y2="99.8667" gradientUnits="userSpaceOnUse">
<stop stop-color="#FFC700"/>
<stop offset="1" stop-color="#FF8A00"/>
</linearGradient>
<linearGradient id="paint2_linear_3_26" x1="204.969" y1="-12.1269" x2="120.157" y2="101.423" gradientUnits="userSpaceOnUse">
<stop stop-color="#FFC700"/>
<stop offset="1" stop-color="#FF8A00"/>
</linearGradient>
</defs>
</svg>
