<svg width="1072" height="170" viewBox="0 0 1072 170" fill="none" xmlns="http://www.w3.org/2000/svg">
<path d="M64.4459 48.7565C80.9148 37.6026 98.929 28.9083 117.918 22.9487C113.123 29.2879 110.863 32.5001 106.583 38.9454C132.716 29.2228 159.554 29.7994 186.757 35.1668C180.576 42.101 177.547 45.6395 171.926 52.8326C186.035 54.5293 198.763 58.8579 210.507 64.8745L226.243 55.0431C216.013 50.6008 205.036 47.3225 193.045 45.546C202.21 38.8096 211.943 32.8785 222.135 27.8195C190.721 17.0616 164.281 14.8346 131.654 20.84C139.361 13.2815 147.63 6.31496 156.39 0C126.037 5.31518 102.142 15.3674 77.2956 31.7281C80.2662 23.6868 81.8729 19.6325 85.3406 11.4697C44.4099 44.4694 18.8694 83.7889 0 130.11C16.4762 95.229 36.855 65.9047 67.7897 40.1608C66.4191 43.6055 65.7525 45.3348 64.4459 48.7565Z" fill="url(#paint0_linear_0_1)"/>
<path d="M251.455 69.0805L251.603 69.3166L251.703 69.2496C251.621 69.1932 251.538 69.1368 251.455 69.0805Z" fill="url(#paint1_linear_0_1)"/>
<path d="M209.004 65.8139L177.352 85.5893C163.257 77.1292 144.926 71.9473 124.515 75.9503C129.825 65.0841 132.743 59.6383 139.08 48.8991C117.164 51.2475 96.2865 60.2984 78.4903 71.9389C81.9218 62.8372 83.9006 58.1658 88.1837 48.8737C72.0394 58.9965 57.2195 71.1433 44.0751 85.0265C45.2273 76.9658 45.8911 72.8402 47.4565 64.4367C26.9051 87.0322 12.5779 110.554 0.492554 137.745C15.6212 102.049 34.8076 71.812 64.5765 44.8116C63.2991 48.3406 62.6978 50.1051 61.5206 53.5959C77.4564 41.7907 95.0078 32.4081 113.619 25.7451C109.086 32.308 106.957 35.6211 102.937 42.2474C128.498 31.5463 155.11 31.1909 182.249 35.6465C176.363 42.844 173.545 46.5126 168.16 53.9514C183.072 55.2434 196.543 59.5799 209.004 65.8139Z" fill="url(#paint2_linear_0_1)"/>
<g filter="url(#filter0_d_0_1)">
<path fill-rule="evenodd" clip-rule="evenodd" d="M94.5457 157.175C98.4827 164.427 108.709 166.131 117.387 160.982C126.065 155.832 129.908 145.779 125.971 138.527C122.034 131.275 111.808 129.571 103.13 134.72C94.4519 139.869 90.6087 149.923 94.5457 157.175ZM100.376 153.715C102.852 158.276 109.284 159.348 114.742 156.11C120.2 152.871 122.617 146.548 120.141 141.987C117.665 137.425 111.233 136.353 105.775 139.592C100.317 142.831 97.8995 149.154 100.376 153.715Z" fill="black"/>
</g>
<path d="M130.668 144.312L234.452 56.6291L118.47 130.052C122.791 130.436 126.602 132.501 128.825 136.123C130.329 138.574 130.908 141.414 130.668 144.312Z" fill="black"/>
<path d="M335.34 43.22C343.86 43.22 350.52 45.98 355.32 51.5C360.12 56.9 362.52 63.74 362.52 72.02L361.98 78.86H347.04V74.9C347.04 71.3 346.14 68.12 344.34 65.36C342.54 62.6 340.26 60.5 337.5 59.06C334.74 57.5 331.98 56.72 329.22 56.72C323.46 56.72 318.96 59 315.72 63.56C312.48 68.12 310.86 74.3 310.86 82.1V137H293.94V45.02H306L308.52 58.7C309.24 56.3 310.86 53.9 313.38 51.5C315.9 49.1 319.02 47.12 322.74 45.56C326.58 44 330.78 43.22 335.34 43.22ZM425.562 43.22C437.202 43.22 446.322 47.48 452.922 56C459.522 64.52 462.822 76.22 462.822 91.1V93.08C462.822 107.24 459.522 118.4 452.922 126.56C446.442 134.72 437.322 138.8 425.562 138.8C414.282 138.8 405.462 134.3 399.102 125.3V169.58H382.182V45.02H394.782C395.622 48.86 396.402 53.06 397.122 57.62C403.962 48.02 413.442 43.22 425.562 43.22ZM422.502 56.72C414.342 56.72 408.342 59.54 404.502 65.18C400.782 70.82 398.922 79.4 398.922 90.92C398.922 102.68 400.842 111.38 404.682 117.02C408.642 122.54 414.582 125.3 422.502 125.3C430.422 125.3 436.302 122.48 440.142 116.84C443.982 111.2 445.902 102.56 445.902 90.92C445.902 79.16 443.922 70.52 439.962 65C436.122 59.48 430.302 56.72 422.502 56.72ZM523.124 43.22C530.444 43.22 536.984 44.84 542.744 48.08C548.624 51.2 553.184 55.64 556.424 61.4C559.664 67.16 561.284 73.76 561.284 81.2H544.544C544.544 73.76 542.624 67.82 538.784 63.38C535.064 58.94 529.664 56.72 522.584 56.72C515.144 56.72 509.204 59.24 504.764 64.28C500.444 69.2 498.284 75.98 498.284 84.62V94.34C498.284 104.78 500.444 112.58 504.764 117.74C509.084 122.78 515.204 125.3 523.124 125.3C530.444 125.3 535.904 123.14 539.504 118.82C543.224 114.38 545.084 108.44 545.084 101H561.284C561.284 112.52 557.804 121.7 550.844 128.54C544.004 135.38 534.824 138.8 523.304 138.8H521.864C513.704 138.8 506.564 136.94 500.444 133.22C494.324 129.38 489.584 124.04 486.224 117.2C482.984 110.36 481.364 102.38 481.364 93.26V88.94C481.364 79.82 483.044 71.84 486.404 65C489.764 58.04 494.504 52.7 500.624 48.98C506.744 45.14 513.764 43.22 521.684 43.22H523.124Z" fill="black"/>
<path d="M682.054 43.22C691.534 43.22 698.914 45.98 704.194 51.5C709.474 57.02 712.114 64.88 712.114 75.08V137H695.194V78.14C695.194 63.86 689.674 56.72 678.634 56.72C674.794 56.72 671.194 57.86 667.834 60.14C664.594 62.42 661.954 65.54 659.914 69.5C657.994 73.34 657.034 77.6 657.034 82.28V137H640.114V78.14C640.114 63.86 634.594 56.72 623.554 56.72C619.714 56.72 616.114 57.86 612.754 60.14C609.514 62.42 606.874 65.54 604.834 69.5C602.914 73.34 601.954 77.6 601.954 82.28V137H585.034V45.02H597.274L599.614 58.52C606.574 48.32 616.234 43.22 628.594 43.22C640.714 43.22 649.114 48.32 653.794 58.52C657.874 52.76 662.254 48.8 666.934 46.64C671.614 44.36 676.654 43.22 682.054 43.22ZM778.028 43.22C785.588 43.22 792.248 44.84 798.008 48.08C803.888 51.2 808.448 55.7 811.688 61.58C814.928 67.46 816.548 74.3 816.548 82.1V94.88H752.288C752.528 104.6 754.808 112.1 759.128 117.38C763.448 122.66 769.868 125.3 778.388 125.3C785.948 125.3 791.528 123.08 795.128 118.64C798.728 114.2 800.528 108.92 800.528 102.8H816.548C816.548 110 814.868 116.3 811.508 121.7C808.268 127.1 803.708 131.3 797.828 134.3C792.068 137.3 785.468 138.8 778.028 138.8H777.308C764.348 138.8 754.088 134.66 746.528 126.38C739.088 117.98 735.368 106.82 735.368 92.9V89.3C735.368 80.18 737.048 72.14 740.408 65.18C743.768 58.22 748.568 52.82 754.808 48.98C761.048 45.14 768.368 43.22 776.768 43.22H778.028ZM777.128 56.72C770.288 56.72 764.708 58.82 760.388 63.02C756.188 67.22 753.608 73.46 752.647 81.74H799.808V79.58C799.808 72.74 797.708 67.22 793.508 63.02C789.428 58.82 783.968 56.72 777.128 56.72ZM860.947 45.02H882.367V58.52H860.947V113.42C860.947 117.74 861.787 120.86 863.467 122.78C865.147 124.7 867.727 125.66 871.207 125.66C874.327 125.66 878.047 124.76 882.367 122.96V135.56C878.047 137.72 872.467 138.8 865.627 138.8C858.547 138.8 853.147 136.7 849.427 132.5C845.827 128.3 844.027 121.64 844.027 112.52V58.52H833.947V45.02H844.567L850.327 15.68H860.947V45.02ZM940.274 43.22C947.834 43.22 954.494 44.84 960.254 48.08C966.134 51.2 970.694 55.7 973.934 61.58C977.174 67.46 978.794 74.3 978.794 82.1V94.88H914.534C914.774 104.6 917.054 112.1 921.374 117.38C925.694 122.66 932.114 125.3 940.634 125.3C948.194 125.3 953.774 123.08 957.374 118.64C960.974 114.2 962.774 108.92 962.774 102.8H978.794C978.794 110 977.114 116.3 973.754 121.7C970.514 127.1 965.954 131.3 960.074 134.3C954.314 137.3 947.714 138.8 940.274 138.8H939.554C926.594 138.8 916.334 134.66 908.774 126.38C901.334 117.98 897.614 106.82 897.614 92.9V89.3C897.614 80.18 899.294 72.14 902.654 65.18C906.014 58.22 910.814 52.82 917.054 48.98C923.294 45.14 930.614 43.22 939.014 43.22H940.274ZM939.374 56.72C932.534 56.72 926.954 58.82 922.634 63.02C918.434 67.22 915.854 73.46 914.894 81.74H962.054V79.58C962.054 72.74 959.954 67.22 955.754 63.02C951.674 58.82 946.214 56.72 939.374 56.72ZM1044.79 43.22C1053.31 43.22 1059.97 45.98 1064.77 51.5C1069.57 56.9 1071.97 63.74 1071.97 72.02L1071.43 78.86H1056.49V74.9C1056.49 71.3 1055.59 68.12 1053.79 65.36C1051.99 62.6 1049.71 60.5 1046.95 59.06C1044.19 57.5 1041.43 56.72 1038.67 56.72C1032.91 56.72 1028.41 59 1025.17 63.56C1021.93 68.12 1020.31 74.3 1020.31 82.1V137H1003.39V45.02H1015.45L1017.97 58.7C1018.69 56.3 1020.31 53.9 1022.83 51.5C1025.35 49.1 1028.47 47.12 1032.19 45.56C1036.03 44 1040.23 43.22 1044.79 43.22Z" fill="url(#paint3_linear_0_1)"/>
<defs>
<filter id="filter0_d_0_1" x="93" y="131.745" width="36.5165" height="36.2115" filterUnits="userSpaceOnUse" color-interpolation-filters="sRGB">
<feFlood flood-opacity="0" result="BackgroundImageFix"/>
<feColorMatrix in="SourceAlpha" type="matrix" values="0 0 0 0 0 0 0 0 0 0 0 0 0 0 0 0 0 0 127 0" result="hardAlpha"/>
<feOffset dx="2" dy="4"/>
<feComposite in2="hardAlpha" operator="out"/>
<feColorMatrix type="matrix" values="0 0 0 0 0 0 0 0 0 0 0 0 0 0 0 0 0 0 0.12 0"/>
<feBlend mode="normal" in2="BackgroundImageFix" result="effect1_dropShadow_0_1"/>
<feBlend mode="normal" in="SourceGraphic" in2="effect1_dropShadow_0_1" result="shape"/>
</filter>
<linearGradient id="paint0_linear_0_1" x1="133.026" y1="-3.89604" x2="-20.985" y2="99.6118" gradientUnits="userSpaceOnUse">
<stop stop-color="#FFC700"/>
<stop offset="1" stop-color="#FF8A00"/>
</linearGradient>
<linearGradient id="paint1_linear_0_1" x1="133.026" y1="-3.89604" x2="-20.985" y2="99.6118" gradientUnits="userSpaceOnUse">
<stop stop-color="#FFC700"/>
<stop offset="1" stop-color="#FF8A00"/>
</linearGradient>
<linearGradient id="paint2_linear_0_1" x1="204.969" y1="-12.3818" x2="120.157" y2="101.168" gradientUnits="userSpaceOnUse">
<stop stop-color="#FFC700"/>
<stop offset="1" stop-color="#FF8A00"/>
</linearGradient>
<linearGradient id="paint3_linear_0_1" x1="887.5" y1="-32" x2="887.5" y2="140" gradientUnits="userSpaceOnUse">
<stop stop-color="#FFC700"/>
<stop offset="1" stop-color="#FF8A00"/>
</linearGradient>
</defs>
</svg>

