<svg width="1480" height="168" viewBox="0 0 1480 168" fill="none" xmlns="http://www.w3.org/2000/svg">
<path d="M347.901 144.505C338.908 144.505 331.585 142.514 325.932 138.531C320.408 134.549 317.646 127.932 317.646 118.682V27.145C318.288 26.8881 319.252 26.6311 320.537 26.3742C321.95 25.9888 323.427 25.7961 324.969 25.7961C330.365 25.7961 333.063 28.1086 333.063 32.7336V54.8952H364.667C365.053 55.5376 365.438 56.4369 365.823 57.5932C366.209 58.6209 366.401 59.7772 366.401 61.0619C366.401 65.43 364.474 67.6141 360.62 67.6141H333.063V117.719C333.063 122.858 334.476 126.519 337.302 128.703C340.257 130.759 344.368 131.786 349.636 131.786C351.82 131.786 354.261 131.401 356.959 130.63C359.657 129.859 361.905 128.96 363.704 127.932C364.474 128.703 365.181 129.667 365.823 130.823C366.466 131.979 366.787 133.328 366.787 134.87C366.787 137.696 365.117 140.009 361.776 141.807C358.436 143.606 353.811 144.505 347.901 144.505Z" fill="black"/>
<path d="M404.957 141.615C404.315 141.872 403.351 142.128 402.066 142.385C400.782 142.771 399.368 142.964 397.827 142.964C392.302 142.964 389.54 140.651 389.54 136.026V17.1241C390.183 16.8672 391.146 16.6102 392.431 16.3533C393.844 15.9679 395.321 15.7752 396.863 15.7752C402.259 15.7752 404.957 18.0877 404.957 22.7127V57.4005C408.04 55.6018 411.638 53.9959 415.749 52.5827C419.988 51.1695 424.742 50.4629 430.009 50.4629C435.405 50.4629 440.287 51.1695 444.655 52.5827C449.152 53.9959 453.006 56.18 456.218 59.1348C459.43 61.9612 461.935 65.6227 463.733 70.1193C465.532 74.4874 466.431 79.6263 466.431 85.5361V141.615C465.789 141.872 464.761 142.128 463.348 142.385C462.063 142.771 460.714 142.964 459.301 142.964C453.777 142.964 451.015 140.651 451.015 136.026V85.9215C451.015 78.2131 448.895 72.496 444.655 68.7703C440.416 65.0446 434.827 63.1817 427.889 63.1817C423.393 63.1817 419.153 64.0168 415.171 65.687C411.316 67.2286 407.912 69.1557 404.957 71.4683V141.615Z" fill="black"/>
<path d="M495.296 53.3535C495.938 53.0966 496.902 52.8397 498.186 52.5827C499.599 52.1973 501.077 52.0046 502.619 52.0046C508.014 52.0046 510.712 54.3813 510.712 59.1348V108.661C510.712 117.012 512.896 122.986 517.265 126.583C521.633 130.052 527.671 131.786 535.379 131.786C540.518 131.786 544.886 131.272 548.484 130.245C552.081 129.088 554.907 127.932 556.963 126.776V53.3535C557.605 53.0966 558.569 52.8397 559.853 52.5827C561.267 52.1973 562.68 52.0046 564.093 52.0046C569.617 52.0046 572.38 54.3813 572.38 59.1348V126.198C572.38 128.896 571.994 131.08 571.223 132.75C570.581 134.292 568.911 135.833 566.213 137.375C563.258 139.045 559.147 140.651 553.879 142.193C548.74 143.734 542.51 144.505 535.187 144.505C522.339 144.505 512.447 141.679 505.509 136.026C498.7 130.373 495.296 121.509 495.296 109.432V53.3535Z" fill="black"/>
<path d="M662.915 83.9944C662.915 76.7999 660.86 71.5325 656.749 68.1922C652.766 64.8519 647.37 63.1817 640.561 63.1817C635.422 63.1817 630.861 63.8241 626.879 65.1088C622.896 66.3936 619.492 67.871 616.665 69.5412V141.615C616.023 141.872 615.059 142.128 613.774 142.385C612.49 142.771 611.077 142.964 609.535 142.964C604.011 142.964 601.248 140.651 601.248 136.026V70.312C601.248 67.6141 601.762 65.43 602.79 63.7599C603.946 61.9612 605.873 60.2269 608.571 58.5567C611.912 56.5011 616.344 54.6383 621.868 52.9681C627.393 51.298 633.624 50.4629 640.561 50.4629C652.252 50.4629 661.438 53.0966 668.119 58.364C674.928 63.6314 678.332 71.9179 678.332 83.2236V141.615C677.69 141.872 676.662 142.128 675.249 142.385C673.964 142.771 672.615 142.964 671.202 142.964C665.678 142.964 662.915 140.651 662.915 136.026V83.9944Z" fill="black"/>
<path d="M783.321 127.354C783.321 129.924 782.743 131.915 781.587 133.328C780.559 134.741 778.889 136.154 776.577 137.568C774.007 139.238 770.346 140.779 765.592 142.193C760.839 143.734 755.378 144.505 749.212 144.505C742.274 144.505 735.915 143.606 730.133 141.807C724.352 140.009 719.342 137.246 715.102 133.521C710.991 129.667 707.779 124.849 705.467 119.068C703.283 113.158 702.191 106.092 702.191 97.8695C702.191 89.5187 703.347 82.3885 705.659 76.4787C707.972 70.4405 711.055 65.4943 714.909 61.6401C718.892 57.7859 723.517 54.9595 728.785 53.1608C734.18 51.3622 739.897 50.4629 745.936 50.4629C750.047 50.4629 754.029 50.9768 757.884 52.0046C761.738 53.0324 765.078 54.3171 767.905 55.8588V17.1241C768.547 16.8672 769.51 16.6102 770.795 16.3533C772.208 15.9679 773.622 15.7752 775.035 15.7752C780.559 15.7752 783.321 18.0877 783.321 22.7127V127.354ZM767.905 69.7339C765.335 67.9352 762.38 66.3936 759.04 65.1088C755.7 63.8241 751.845 63.1817 747.477 63.1817C743.495 63.1817 739.705 63.8241 736.107 65.1088C732.639 66.2651 729.555 68.2564 726.857 71.0828C724.159 73.7808 721.975 77.378 720.305 81.8746C718.764 86.3711 717.993 91.8312 717.993 98.2549C717.993 110.074 720.819 118.618 726.472 123.885C732.125 129.153 739.641 131.786 749.019 131.786C753.516 131.786 757.177 131.337 760.003 130.437C762.958 129.41 765.592 128.189 767.905 126.776V69.7339Z" fill="black"/>
<path d="M823.574 106.541C827.042 123.371 838.091 131.786 856.72 131.786C862.116 131.786 866.998 130.887 871.366 129.088C875.734 127.29 879.202 125.363 881.772 123.307C884.855 125.106 886.397 127.547 886.397 130.63C886.397 132.429 885.562 134.163 883.892 135.833C882.35 137.503 880.166 138.981 877.34 140.266C874.642 141.55 871.43 142.578 867.704 143.349C864.107 144.12 860.188 144.505 855.949 144.505C841.046 144.505 829.226 140.458 820.49 132.365C811.883 124.271 807.579 112.451 807.579 96.9059C807.579 89.583 808.606 83.0951 810.662 77.4423C812.846 71.661 815.801 66.779 819.527 62.7963C823.381 58.8137 827.942 55.7945 833.209 53.739C838.476 51.5549 844.194 50.4629 850.36 50.4629C856.142 50.4629 861.473 51.4264 866.355 53.3535C871.237 55.2806 875.412 58.0428 878.881 61.6401C882.478 65.1088 885.241 69.2842 887.168 74.1662C889.223 78.9197 890.251 84.1871 890.251 89.9684C890.251 92.7948 889.609 94.8504 888.324 96.1351C887.039 97.2914 885.241 97.998 882.928 98.2549L823.574 106.541ZM850.167 62.989C842.331 62.989 835.843 65.7512 830.704 71.2755C825.565 76.6714 822.867 84.444 822.61 94.5934L875.605 87.2704C874.963 80.2044 872.458 74.4231 868.089 69.9266C863.85 65.3015 857.876 62.989 850.167 62.989Z" fill="black"/>
<path d="M927.936 141.615C927.294 141.872 926.331 142.128 925.046 142.385C923.761 142.771 922.348 142.964 920.806 142.964C915.282 142.964 912.52 140.651 912.52 136.026V70.6974C912.52 67.7425 913.033 65.43 914.061 63.7599C915.218 61.9612 917.08 60.2269 919.65 58.5567C922.99 56.3727 927.487 54.5098 933.14 52.9681C938.921 51.298 945.409 50.4629 952.603 50.4629C962.881 50.4629 968.02 53.0324 968.02 58.1713C968.02 59.456 967.827 60.6765 967.442 61.8328C967.056 62.8606 966.543 63.7599 965.9 64.5307C964.615 64.2738 962.945 64.0168 960.89 63.7599C958.834 63.5029 956.779 63.3745 954.723 63.3745C948.813 63.3745 943.61 64.0168 939.114 65.3015C934.617 66.4578 930.891 67.871 927.936 69.5412V141.615Z" fill="black"/>
<path d="M1110.38 81.4892C1110.38 75.194 1108.58 70.5689 1104.99 67.6141C1101.39 64.6592 1096.57 63.1817 1090.53 63.1817C1082.18 63.1817 1074.73 66.1366 1068.18 72.0464C1068.95 74.6158 1069.33 77.378 1069.33 80.3329V141.615C1068.69 141.872 1067.66 142.128 1066.25 142.385C1064.97 142.771 1063.62 142.964 1062.2 142.964C1056.68 142.964 1053.92 140.651 1053.92 136.026V81.4892C1053.92 75.194 1052.12 70.5689 1048.52 67.6141C1044.92 64.6592 1040.04 63.1817 1033.88 63.1817C1029.76 63.1817 1025.85 63.8241 1022.12 65.1088C1018.52 66.3936 1015.44 67.871 1012.87 69.5412V141.615C1012.23 141.872 1011.26 142.128 1009.98 142.385C1008.69 142.771 1007.28 142.964 1005.74 142.964C1000.22 142.964 997.453 140.651 997.453 136.026V70.312C997.453 67.7425 997.967 65.6227 998.995 63.9526C1000.15 62.154 1002.08 60.3553 1004.78 58.5567C1008.24 56.3727 1012.61 54.5098 1017.88 52.9681C1023.28 51.298 1028.67 50.4629 1034.07 50.4629C1040.36 50.4629 1045.95 51.4264 1050.83 53.3535C1055.72 55.1522 1059.44 57.6574 1062.01 60.8692C1065.35 57.9143 1069.53 55.4734 1074.54 53.5463C1079.55 51.4907 1085.26 50.4629 1091.69 50.4629C1102.09 50.4629 1110.38 52.9681 1116.55 57.9786C1122.71 62.8606 1125.8 70.4405 1125.8 80.7183V141.615C1125.16 141.872 1124.13 142.128 1122.71 142.385C1121.43 142.771 1120.08 142.964 1118.67 142.964C1113.14 142.964 1110.38 140.651 1110.38 136.026V81.4892Z" fill="url(#paint0_linear_4_104)"/>
<path d="M1165.77 106.541C1169.24 123.371 1180.28 131.786 1198.91 131.786C1204.31 131.786 1209.19 130.887 1213.56 129.088C1217.93 127.29 1221.4 125.363 1223.97 123.307C1227.05 125.106 1228.59 127.547 1228.59 130.63C1228.59 132.429 1227.76 134.163 1226.09 135.833C1224.54 137.503 1222.36 138.981 1219.53 140.266C1216.84 141.55 1213.62 142.578 1209.9 143.349C1206.3 144.12 1202.38 144.505 1198.14 144.505C1183.24 144.505 1171.42 140.458 1162.68 132.365C1154.08 124.271 1149.77 112.451 1149.77 96.9059C1149.77 89.583 1150.8 83.0951 1152.86 77.4423C1155.04 71.661 1157.99 66.779 1161.72 62.7963C1165.57 58.8137 1170.14 55.7945 1175.4 53.739C1180.67 51.5549 1186.39 50.4629 1192.55 50.4629C1198.33 50.4629 1203.67 51.4264 1208.55 53.3535C1213.43 55.2806 1217.61 58.0428 1221.07 61.6401C1224.67 65.1088 1227.43 69.2842 1229.36 74.1662C1231.42 78.9197 1232.44 84.1871 1232.44 89.9684C1232.44 92.7948 1231.8 94.8504 1230.52 96.1351C1229.23 97.2914 1227.43 97.998 1225.12 98.2549L1165.77 106.541ZM1192.36 62.989C1184.52 62.989 1178.04 65.7512 1172.9 71.2755C1167.76 76.6714 1165.06 84.444 1164.8 94.5934L1217.8 87.2704C1217.16 80.2044 1214.65 74.4231 1210.28 69.9266C1206.04 65.3015 1200.07 62.989 1192.36 62.989Z" fill="url(#paint1_linear_4_104)"/>
<path d="M1285.16 144.505C1276.17 144.505 1268.85 142.514 1263.19 138.531C1257.67 134.549 1254.91 127.932 1254.91 118.682V27.145C1255.55 26.8881 1256.51 26.6311 1257.8 26.3742C1259.21 25.9888 1260.69 25.7961 1262.23 25.7961C1267.62 25.7961 1270.32 28.1086 1270.32 32.7336V54.8952H1301.93C1302.31 55.5376 1302.7 56.4369 1303.08 57.5932C1303.47 58.6209 1303.66 59.7772 1303.66 61.0619C1303.66 65.43 1301.73 67.6141 1297.88 67.6141H1270.32V117.719C1270.32 122.858 1271.74 126.519 1274.56 128.703C1277.52 130.759 1281.63 131.786 1286.9 131.786C1289.08 131.786 1291.52 131.401 1294.22 130.63C1296.92 129.859 1299.16 128.96 1300.96 127.932C1301.73 128.703 1302.44 129.667 1303.08 130.823C1303.73 131.979 1304.05 133.328 1304.05 134.87C1304.05 137.696 1302.38 140.009 1299.04 141.807C1295.7 143.606 1291.07 144.505 1285.16 144.505Z" fill="url(#paint2_linear_4_104)"/>
<path d="M1334.58 106.541C1338.05 123.371 1349.09 131.786 1367.72 131.786C1373.12 131.786 1378 130.887 1382.37 129.088C1386.74 127.29 1390.21 125.363 1392.77 123.307C1395.86 125.106 1397.4 127.547 1397.4 130.63C1397.4 132.429 1396.56 134.163 1394.89 135.833C1393.35 137.503 1391.17 138.981 1388.34 140.266C1385.64 141.55 1382.43 142.578 1378.71 143.349C1375.11 144.12 1371.19 144.505 1366.95 144.505C1352.05 144.505 1340.23 140.458 1331.49 132.365C1322.89 124.271 1318.58 112.451 1318.58 96.9059C1318.58 89.583 1319.61 83.0951 1321.66 77.4423C1323.85 71.661 1326.8 66.779 1330.53 62.7963C1334.38 58.8137 1338.94 55.7945 1344.21 53.739C1349.48 51.5549 1355.2 50.4629 1361.36 50.4629C1367.14 50.4629 1372.48 51.4264 1377.36 53.3535C1382.24 55.2806 1386.42 58.0428 1389.88 61.6401C1393.48 65.1088 1396.24 69.2842 1398.17 74.1662C1400.23 78.9197 1401.25 84.1871 1401.25 89.9684C1401.25 92.7948 1400.61 94.8504 1399.33 96.1351C1398.04 97.2914 1396.24 97.998 1393.93 98.2549L1334.58 106.541ZM1361.17 62.989C1353.33 62.989 1346.85 65.7512 1341.71 71.2755C1336.57 76.6714 1333.87 84.444 1333.61 94.5934L1386.61 87.2704C1385.97 80.2044 1383.46 74.4231 1379.09 69.9266C1374.85 65.3015 1368.88 62.989 1361.17 62.989Z" fill="url(#paint3_linear_4_104)"/>
<path d="M1438.94 141.615C1438.3 141.872 1437.33 142.128 1436.05 142.385C1434.76 142.771 1433.35 142.964 1431.81 142.964C1426.28 142.964 1423.52 140.651 1423.52 136.026V70.6974C1423.52 67.7425 1424.04 65.43 1425.06 63.7599C1426.22 61.9612 1428.08 60.2269 1430.65 58.5567C1433.99 56.3727 1438.49 54.5098 1444.14 52.9681C1449.92 51.298 1456.41 50.4629 1463.61 50.4629C1473.88 50.4629 1479.02 53.0324 1479.02 58.1713C1479.02 59.456 1478.83 60.6765 1478.44 61.8328C1478.06 62.8606 1477.55 63.7599 1476.9 64.5307C1475.62 64.2738 1473.95 64.0168 1471.89 63.7599C1469.84 63.5029 1467.78 63.3745 1465.73 63.3745C1459.82 63.3745 1454.61 64.0168 1450.12 65.3015C1445.62 66.4578 1441.89 67.871 1438.94 69.5412V141.615Z" fill="url(#paint4_linear_4_104)"/>
<path d="M64.4459 48.7565C80.9148 37.6026 98.929 28.9083 117.918 22.9487C113.123 29.2879 110.863 32.5001 106.583 38.9454C132.716 29.2228 159.554 29.7994 186.757 35.1668C180.576 42.101 177.547 45.6395 171.926 52.8326C186.035 54.5293 198.763 58.8579 210.507 64.8745L226.243 55.0431C216.013 50.6008 205.036 47.3225 193.045 45.546C202.21 38.8096 211.943 32.8785 222.135 27.8195C190.721 17.0616 164.281 14.8346 131.654 20.84C139.361 13.2815 147.63 6.31496 156.39 0C126.037 5.31518 102.142 15.3674 77.2956 31.7281C80.2662 23.6868 81.8729 19.6325 85.3406 11.4697C44.4099 44.4694 18.8694 83.7889 0 130.11C16.4762 95.229 36.855 65.9047 67.7897 40.1608C66.4191 43.6055 65.7525 45.3348 64.4459 48.7565Z" fill="url(#paint5_linear_4_104)"/>
<path d="M251.455 69.0805L251.603 69.3166L251.703 69.2496C251.621 69.1932 251.538 69.1368 251.455 69.0805Z" fill="url(#paint6_linear_4_104)"/>
<path d="M209.004 65.8139L177.352 85.5893C163.257 77.1292 144.926 71.9473 124.515 75.9503C129.825 65.0841 132.743 59.6383 139.08 48.8991C117.164 51.2475 96.2866 60.2984 78.4904 71.9389C81.9219 62.8372 83.9006 58.1658 88.1837 48.8737C72.0394 58.9965 57.2195 71.1433 44.0751 85.0265C45.2273 76.9658 45.8911 72.8402 47.4565 64.4367C26.9051 87.0322 12.578 110.554 0.492584 137.745C15.6212 102.049 34.8076 71.812 64.5765 44.8116C63.2991 48.3406 62.6979 50.1051 61.5207 53.5959C77.4564 41.7907 95.0079 32.4081 113.619 25.7451C109.086 32.308 106.957 35.6211 102.937 42.2474C128.498 31.5463 155.11 31.1909 182.249 35.6465C176.363 42.844 173.545 46.5126 168.16 53.9514C183.072 55.2434 196.543 59.5799 209.004 65.8139Z" fill="url(#paint7_linear_4_104)"/>
<g filter="url(#filter0_d_4_104)">
<path fill-rule="evenodd" clip-rule="evenodd" d="M94.5457 157.175C98.4827 164.427 108.709 166.131 117.387 160.982C126.065 155.832 129.908 145.779 125.971 138.527C122.034 131.275 111.808 129.571 103.13 134.72C94.4519 139.869 90.6087 149.923 94.5457 157.175ZM100.376 153.715C102.852 158.276 109.284 159.348 114.742 156.11C120.2 152.871 122.617 146.548 120.141 141.987C117.665 137.425 111.233 136.353 105.775 139.592C100.317 142.831 97.8995 149.154 100.376 153.715Z" fill="black"/>
</g>
<path d="M130.668 144.312L234.452 56.6291L118.47 130.052C122.791 130.436 126.602 132.501 128.825 136.123C130.329 138.574 130.908 141.414 130.668 144.312Z" fill="black"/>
<defs>
<filter id="filter0_d_4_104" x="93" y="131.745" width="36.5165" height="36.2115" filterUnits="userSpaceOnUse" color-interpolation-filters="sRGB">
<feFlood flood-opacity="0" result="BackgroundImageFix"/>
<feColorMatrix in="SourceAlpha" type="matrix" values="0 0 0 0 0 0 0 0 0 0 0 0 0 0 0 0 0 0 127 0" result="hardAlpha"/>
<feOffset dx="2" dy="4"/>
<feComposite in2="hardAlpha" operator="out"/>
<feColorMatrix type="matrix" values="0 0 0 0 0 0 0 0 0 0 0 0 0 0 0 0 0 0 0.12 0"/>
<feBlend mode="normal" in2="BackgroundImageFix" result="effect1_dropShadow_4_104"/>
<feBlend mode="normal" in="SourceGraphic" in2="effect1_dropShadow_4_104" result="shape"/>
</filter>
<linearGradient id="paint0_linear_4_104" x1="1243.15" y1="-31.0645" x2="1250.89" y2="111.644" gradientUnits="userSpaceOnUse">
<stop stop-color="#FFC700"/>
<stop offset="1" stop-color="#FF8A00"/>
</linearGradient>
<linearGradient id="paint1_linear_4_104" x1="1243.15" y1="-31.0645" x2="1250.89" y2="111.644" gradientUnits="userSpaceOnUse">
<stop stop-color="#FFC700"/>
<stop offset="1" stop-color="#FF8A00"/>
</linearGradient>
<linearGradient id="paint2_linear_4_104" x1="1243.15" y1="-31.0645" x2="1250.89" y2="111.644" gradientUnits="userSpaceOnUse">
<stop stop-color="#FFC700"/>
<stop offset="1" stop-color="#FF8A00"/>
</linearGradient>
<linearGradient id="paint3_linear_4_104" x1="1243.15" y1="-31.0645" x2="1250.89" y2="111.644" gradientUnits="userSpaceOnUse">
<stop stop-color="#FFC700"/>
<stop offset="1" stop-color="#FF8A00"/>
</linearGradient>
<linearGradient id="paint4_linear_4_104" x1="1243.15" y1="-31.0645" x2="1250.89" y2="111.644" gradientUnits="userSpaceOnUse">
<stop stop-color="#FFC700"/>
<stop offset="1" stop-color="#FF8A00"/>
</linearGradient>
<linearGradient id="paint5_linear_4_104" x1="133.026" y1="-3.89604" x2="-20.985" y2="99.6118" gradientUnits="userSpaceOnUse">
<stop stop-color="#FFC700"/>
<stop offset="1" stop-color="#FF8A00"/>
</linearGradient>
<linearGradient id="paint6_linear_4_104" x1="133.026" y1="-3.89604" x2="-20.985" y2="99.6118" gradientUnits="userSpaceOnUse">
<stop stop-color="#FFC700"/>
<stop offset="1" stop-color="#FF8A00"/>
</linearGradient>
<linearGradient id="paint7_linear_4_104" x1="204.969" y1="-12.3818" x2="120.157" y2="101.168" gradientUnits="userSpaceOnUse">
<stop stop-color="#FFC700"/>
<stop offset="1" stop-color="#FF8A00"/>
</linearGradient>
</defs>
</svg>
